<?xml version="1.0" encoding="UTF-8"?>
<svg id="Layer_2" data-name="Layer 2" xmlns="http://www.w3.org/2000/svg" viewBox="0 0 540 158.73">
  <defs>
    <style>
      .cls-1 {
        fill: #ed5c2c;
      }

      .cls-1, .cls-2 {
        fill-rule: evenodd;
      }

      .cls-2, .cls-3 {
        fill: #3b3839;
      }

      .cls-4 {
        fill: #ec5c2a;
      }
    </style>
  </defs>
  <g id="Layer_1-2" data-name="Layer 1">
    <g>
      <g>
        <path class="cls-1" d="M5.31,32.9c24.56,11.45,19.67,25.6,19.67,25.6,0,0,2.2-3.81.87-7.26.76,1.98,10.31,8.03,17.71.64-7.39,3.7-17.53,2.75-16.69-4.38.29-2.48,2.68-4.88,7.61-4.88-.02-.02-1.38-6.29-.59-8.55,1.11-3.18,6.17-3.42,7.98-1.31,2.61,3.06,5.82,9.39,8.05,11.71-2.66-2.76-3.12-11.71-8.05-14.18-2.46-1.23-6.55-.58-8.62,1.23-2.57,2.25-.96,9.55-.96,9.55-3,.52-6.67,4.49-7.08,4.62-1.56.5-10.94-9.47-20.35-14.55,0,0,.09-.26-.35.85-1.01,2.54-1.82,4.44-2.05,6.92-.11,1.17-.09,2.5,0,3.7.93,12.28,9.85,18.48,28.33,18.48-12.32-4.93-19.71-11.09-23.4-19.71,0,3.7,3.7,9.85,12.32,16.01-9.85-3.7-16.08-10.33-15.37-19.75.08-1.11.29-2.55.59-3.65.29-1.05.39-1.09.4-1.09h0Z"/>
        <path class="cls-1" d="M50.09,48.66c-12.73,6.84-18.06,12.43-15.6,17.35-14.78,2.46-27.1,0-34.49-8.62,6.16,9.85,18.48,12.32,35.72,9.85,2.46,2.46,6.16,2.46,9.85,1.23,3.7,4.93,7.65,5.06,8.96,3.91,6.16-5.41,4.3-12.94-1.57-22.38,5.6,9,5.81,19.26-.4,21.14-1.53.47-4.53-2.67-6.99-5.13-3.7,1.23-10.34,3.68-9.85-2.46.55-6.9,4.94-7.37,16.03-14.76l-.53-.84s-.83.54-1.14.71Z"/>
        <path class="cls-1" d="M46.32,39.49c.69,1.49,5.4,9.29,5.4,9.29.4-.13,15.46-5.69,17.74-9.99,1.08-2.03.55-5.33-1.79-6.77-1.57-.97-7.73-.56-7.73-.56-.71-1.51-2.07-4.88-5.76-4.85-8.69.07-9.96,7.02-8.8,10.76.18.57.2.51.94,2.12ZM52.23,46.99s-12.2-18.03,1.73-18.8c1.88-.1,4.34,2.62,5.29,4.91,0,0,6-.97,7.47.14,2.02,1.53.38,5.65-.84,6.89-2.63,2.68-8.76,4.73-13.65,6.86Z"/>
        <g>
          <path class="cls-1" d="M77.01,48.21c-8.17-8.96-25.47.31-25.47.31,0,0,9.93,16.77,15.76,17.86,2.69.5,8.91-1.51,3.98-10.14,12.32-6.16,24.78-17.33,33.4-30.88-6.16,8.62-15.18,17.09-26.26,24.48,0,0-1.28-1.5-1.42-1.65ZM68.75,63.18c-3.78,1.97-16.31-14.82-16.31-14.82,0,0,21.05-6.97,22.69,1.65.51,2.71-2.46,3.7-6.16,4.93,2.46,3.7,1.48,7.35-.22,8.24Z"/>
          <path class="cls-2" d="M44.33,25.37C61.57.74,94.83-4.19,120.7,11.82,109.61,1.97,93.6-1.72,78.82.74c-14.78,2.46-27.1,12.32-34.49,24.64h0Z"/>
          <path class="cls-1" d="M43.1,74.65c-2.46,0-4.93,1.23-6.16,3.7,1.23-1.23,3.7-1.23,4.93-1.23,0,9.85-16.01,17.24-16.01,17.24,0,0-1.23-8.62,1.23-12.32,2.46-3.7,6.16-6.16,9.85-7.39-4.93,2.46-8.62,7.39-9.85,12.32,2.46-6.16,8.62-11.09,18.48-14.78-6.16-1.23-13.55,0-18.48,6.16-4.93,4.93-3.6,14.66-2.46,19.71,0,0,23.4-12.32,18.48-23.4Z"/>
          <path class="cls-2" d="M57.88,78.34c-9.85,7.39-18.48,17.24-19.71,30.79-1.23,12.32,4.51,24.83,13.52,33.58l-1.21,15.69c1.23-6.16,1.23-11.09,2.46-14.78,7.39,7.39,18.48,13.55,32.03,14.78,29.56,2.46,36.95-9.85,36.95-17.24,0-3.7-2.46-8.62-8.62-9.85,4.93,4.93,4.93,9.85,3.7,13.55-1.23,7.39-14.78,13.55-30.79,12.32,8.62-30.79,20.94-45.58,38.18-44.34,17.24,0,23.4-6.16,17.24-17.24,3.7-3.7,4.93-6.16,2.46-7.39,3.7-1.23,3.7-4.93,0-8.62,0,0,0-1.23,2.46-2.46,4.93-3.7,4.93-6.16,0-9.85-8.62-6.16-12.32-12.32-12.32-18.48,1.23-9.85-2.46-19.71-9.85-29.56,4.93,7.39,7.39,16.01,7.39,25.87s4.93,17.24,13.55,23.4c1.23,1.23,2.46,1.23,2.46,2.46s-4.93,3.7-4.93,7.39c3.7,4.93,2.46,7.39-6.16,9.85,8.62-1.23,9.85,1.23,3.7,6.16,4.93,11.09,1.23,16.01-13.55,14.78-18.48-1.23-32.03,14.78-41.88,48.04-12.32-1.23-24.04-7.89-31.43-15.28,6.16-24.64,16.09-27.83,30.2-47.54,9.18-12.83,24.64-27.1,33.26-44.34,11.09,0,14.78-1.23,12.32-3.7l-11.09,1.23c4.93-8.62,6.16-19.71,6.16-29.56-1.23,14.78-4.93,28.33-13.55,39.42-25.87,30.79-49.79,54.48-58.41,82.81-18.48-22.17-15.49-42.16,10.37-60.64,34.49-23.4,52.97-40.65,52.97-59.12-2.46,22.17-57.89,57.89-57.89,57.89h0Z"/>
        </g>
        <path class="cls-2" d="M119.47,61.1c2.46,1.23,6.16,2.46,9.85,3.7l-1.23-2.46c3.7,0,6.16-1.23,6.16-3.7-2.46,0-4.93-1.23-6.16-3.7,1.23,3.7-1.23,6.16-8.62,6.16h0Z"/>
      </g>
      <g>
        <path class="cls-4" d="M195.82,45.2c1.04-.97,1.96-1.78,2.76-2.44.8-.66,1.58-1.2,2.34-1.61.76-.42,1.54-.71,2.34-.88.8-.17,1.72-.26,2.76-.26,3.54,0,5.82.95,6.86,2.86,1.04,1.91,1.56,4.56,1.56,7.96v17.47c0,2.29-.61,3.8-1.82,4.52-1.21.73-2.83,1.3-4.84,1.72v1.25c1.25-.14,2.6-.24,4.06-.31,1.46-.07,2.98-.1,4.58-.1,2.36,0,4.66.03,6.92.1,2.25.07,4.38.17,6.4.31v-1.25c-2.29-.42-4.06-.99-5.3-1.72-1.25-.73-1.87-2.24-1.87-4.52v-24.34c2.56-2.22,5.96-3.33,10.19-3.33,2.22,0,4.18.85,5.88,2.55,1.7,1.7,2.55,4.25,2.55,7.65v17.47c0,2.29-.61,3.8-1.82,4.52-1.21.73-2.83,1.3-4.84,1.72v1.25c1.25-.14,2.6-.24,4.06-.31,1.46-.07,2.98-.1,4.58-.1,2.36,0,4.68.03,6.97.1,2.29.07,4.54.17,6.76.31v-1.25c-2.5-.42-4.39-.99-5.67-1.72-1.28-.73-1.92-2.24-1.92-4.52v-18.51c0-4.78-1.25-8.37-3.74-10.76-2.5-2.39-5.93-3.59-10.3-3.59-1.18,0-2.39.17-3.64.52-1.25.35-2.46.82-3.64,1.4-1.18.59-2.32,1.21-3.43,1.87-1.11.66-2.12,1.3-3.02,1.92-1.53-1.87-3.21-3.29-5.04-4.27-1.84-.97-3.97-1.46-6.4-1.46-2.91,0-5.46.57-7.64,1.72-2.18,1.14-4.39,2.51-6.61,4.11v-5.2l-15.19,2.08v1.25c1.32.07,2.43.21,3.33.42.9.21,1.63.57,2.18,1.09.55.52.95,1.27,1.2,2.24.24.97.36,2.29.36,3.95v21.22c0,2.29-.64,3.8-1.92,4.52-1.28.73-3.17,1.3-5.67,1.72v1.25c1.73-.14,3.36-.24,4.89-.31,1.52-.07,3.08-.1,4.68-.1,2.36,0,4.66.03,6.92.1,2.25.07,4.39.17,6.4.31v-1.25c-2.29-.42-4.06-.99-5.31-1.72-1.25-.73-1.87-2.24-1.87-4.52v-23.09ZM257.71,37.92c1.6.42,2.88.8,3.85,1.14.97.35,1.8.82,2.5,1.4.69.59,1.28,1.37,1.77,2.34.48.97,1.07,2.25,1.77,3.85.76,1.53,1.66,3.38,2.7,5.56,1.04,2.18,2.08,4.44,3.12,6.76,1.04,2.32,2.08,4.66,3.12,7.02,1.04,2.36,1.98,4.49,2.81,6.4.83,1.91,1.49,3.47,1.98,4.68.48,1.21.73,1.92.73,2.13,0,.55-.49,1.82-1.46,3.8-.97,1.98-2.24,4.06-3.8,6.24-1.56,2.18-3.35,4.12-5.36,5.82-2.01,1.7-4.06,2.55-6.14,2.55-.97,0-1.96-.05-2.96-.16-1.01-.1-1.51-.36-1.51-.78,0-.35.28-.92.83-1.72.55-.8.83-1.79.83-2.96,0-1.66-.49-2.9-1.46-3.69-.97-.8-2.25-1.2-3.85-1.2-1.39,0-2.58.55-3.59,1.66-1,1.11-1.51,2.36-1.51,3.74,0,1.52.3,2.84.88,3.95.59,1.11,1.35,2.03,2.29,2.76.94.73,2.01,1.26,3.22,1.61,1.21.35,2.44.52,3.69.52,1.46,0,2.86-.12,4.21-.36,1.35-.24,2.74-.8,4.16-1.66,1.42-.87,2.91-2.13,4.47-3.8,1.56-1.66,3.29-3.94,5.2-6.81,1.91-2.88,4.04-6.47,6.4-10.77,2.36-4.3,4.99-9.46,7.91-15.5.62-1.25,1.52-3.17,2.7-5.77,1.18-2.6,2.55-5.25,4.11-7.96,1.56-2.7,3.26-5.11,5.1-7.23,1.84-2.11,3.73-3.31,5.67-3.59v-1.25c-1.6.21-3.16.33-4.68.36-1.53.04-3.09.05-4.68.05s-3.29-.02-4.89-.05c-1.6-.03-3.19-.16-4.78-.36v1.25c.69.21,1.42.4,2.18.57.76.17,1.42.42,1.98.73.55.31,1.02.71,1.4,1.2.38.49.57,1.14.57,1.98,0,.49-.26,1.46-.78,2.91-.52,1.46-1.18,3.16-1.98,5.1-.8,1.94-1.66,4.02-2.6,6.24-.94,2.22-1.87,4.35-2.81,6.4-.94,2.05-1.77,3.87-2.5,5.46-.73,1.6-1.27,2.74-1.61,3.43-.76-2.36-1.79-4.92-3.07-7.7-1.28-2.77-2.53-5.49-3.74-8.16-1.21-2.67-2.27-5.16-3.17-7.49-.9-2.32-1.35-4.18-1.35-5.56,0-1.73.69-2.98,2.08-3.74,1.39-.76,2.84-1.21,4.37-1.35v-1.25c-2.08.21-4.2.33-6.35.36-2.15.04-4.26.05-6.34.05s-4.11-.02-5.88-.05c-1.77-.03-3.69-.16-5.77-.36v1.25ZM342.16,74.22c.9.14,1.94.35,3.12.62,1.18.28,2.44.59,3.8.94,1.35.35,2.79.64,4.32.88,1.52.24,3.12.36,4.78.36,2.08,0,4.04-.19,5.88-.57,1.84-.38,3.45-1.02,4.84-1.92,1.39-.9,2.48-2.13,3.28-3.69.8-1.56,1.2-3.55,1.2-5.98,0-2.29-.64-4.21-1.92-5.77-1.28-1.56-2.86-2.88-4.73-3.95-1.87-1.07-3.94-1.99-6.19-2.76-2.25-.76-4.32-1.54-6.19-2.34-1.87-.8-3.45-1.66-4.73-2.6-1.28-.94-1.92-2.13-1.92-3.59,0-2.01.69-3.4,2.08-4.16,1.39-.76,2.95-1.14,4.68-1.14,1.52,0,3.02.3,4.47.88,1.46.59,2.82,1.35,4.11,2.29,1.28.94,2.44,2.01,3.48,3.22,1.04,1.21,1.91,2.48,2.6,3.8h1.35l-.62-11.03c-2.64-.14-5.18-.55-7.64-1.25-2.46-.69-5.01-1.04-7.65-1.04-3.54,0-6.47,1.01-8.79,3.02-2.32,2.01-3.48,4.89-3.48,8.63,0,2.29.64,4.16,1.92,5.62,1.28,1.46,2.86,2.69,4.73,3.69,1.87,1.01,3.93,1.87,6.19,2.6,2.25.73,4.32,1.51,6.19,2.34,1.87.83,3.45,1.8,4.73,2.91,1.28,1.11,1.92,2.53,1.92,4.26,0,1.04-.24,1.91-.73,2.6-.49.69-1.11,1.25-1.87,1.66-.76.42-1.61.71-2.55.88-.94.17-1.86.26-2.76.26-1.87,0-3.64-.35-5.31-1.04-1.66-.69-3.22-1.59-4.68-2.7-1.46-1.11-2.79-2.36-4-3.74-1.21-1.39-2.31-2.81-3.28-4.26h-1.46l.83,12.07ZM386.58,40.31v27.77c0,2.43.52,4.52,1.56,6.29,1.04,1.77,3.02,2.65,5.93,2.65,1.66,0,3.21-.26,4.63-.78,1.42-.52,2.74-1.21,3.95-2.08,1.21-.87,2.37-1.84,3.48-2.91,1.11-1.07,2.25-2.13,3.43-3.17l-.94-1.04c-1.39,1.39-2.77,2.53-4.16,3.43-1.39.9-3.12,1.35-5.2,1.35-1.04,0-1.86-.21-2.44-.62-.59-.42-1.04-.97-1.35-1.66-.31-.69-.52-1.47-.62-2.34-.1-.87-.16-1.75-.16-2.65v-24.23h14.25v-3.12h-14.25v-15.08h-1.46c-.62,1.8-1.34,3.68-2.13,5.62-.8,1.94-1.79,3.71-2.96,5.3-1.18,1.6-2.57,2.91-4.16,3.95-1.6,1.04-3.5,1.6-5.72,1.66v1.66h8.32ZM412.47,75.78c1.59-.14,3.14-.24,4.63-.31,1.49-.07,3.03-.1,4.63-.1,2.36,0,4.7.03,7.02.1,2.32.07,4.66.17,7.02.31v-1.25c-2.64-.42-4.61-.99-5.93-1.72-1.32-.73-1.98-2.24-1.98-4.52v-22.05c.62-.62,1.33-1.35,2.13-2.18.8-.83,1.65-1.61,2.55-2.34.9-.73,1.84-1.34,2.81-1.82.97-.48,1.94-.73,2.91-.73,1.18,0,2.11.43,2.81,1.3.69.87,1.04,1.79,1.04,2.76,0,.83-.07,1.51-.21,2.03-.14.52-.28,1.02-.42,1.51l8.32-4.37c-.14-2.64-.88-4.7-2.24-6.19-1.35-1.49-3.38-2.24-6.08-2.24-1.18,0-2.39.31-3.64.94-1.25.62-2.48,1.37-3.69,2.24-1.21.87-2.36,1.75-3.43,2.65-1.08.9-2.03,1.63-2.86,2.18v-5.93l-15.19,2.29v1.25c1.87,0,3.52.24,4.94.73,1.42.49,2.13,1.77,2.13,3.85v24.13c0,2.29-.62,3.8-1.87,4.52-1.25.73-3.05,1.3-5.41,1.72v1.25ZM492.98,53.52c-.76-6.1-2.81-10.64-6.14-13.63-3.33-2.98-7.73-4.47-13.21-4.47-2.98,0-5.65.59-8.01,1.77-2.36,1.18-4.37,2.74-6.03,4.68-1.66,1.94-2.93,4.16-3.8,6.66-.87,2.5-1.3,5.06-1.3,7.7s.43,5.2,1.3,7.7c.87,2.5,2.13,4.72,3.8,6.66,1.66,1.94,3.68,3.5,6.03,4.68,2.36,1.18,5.03,1.77,8.01,1.77,4.16,0,7.73-.8,10.71-2.39,2.98-1.59,5.89-3.92,8.74-6.97l-1.77-1.66c-2.01,2.01-4.2,3.48-6.55,4.42-2.36.94-4.99,1.4-7.9,1.4-1.39,0-2.9-.28-4.52-.83-1.63-.55-3.16-1.52-4.58-2.91-1.42-1.39-2.6-3.26-3.54-5.62-.94-2.36-1.4-5.34-1.4-8.94h30.16ZM463.02,50.4c0-1.32.22-2.69.68-4.11.45-1.42,1.11-2.7,1.98-3.85.87-1.14,1.91-2.08,3.12-2.81,1.21-.73,2.55-1.09,4-1.09,1.94,0,3.54.26,4.78.78,1.25.52,2.25,1.28,3.02,2.29.76,1.01,1.32,2.25,1.66,3.74.35,1.49.62,3.17.83,5.04h-20.07ZM539.15,53.52c-.76-6.1-2.81-10.64-6.14-13.63-3.33-2.98-7.73-4.47-13.21-4.47-2.98,0-5.65.59-8.01,1.77-2.36,1.18-4.37,2.74-6.03,4.68-1.66,1.94-2.93,4.16-3.8,6.66-.87,2.5-1.3,5.06-1.3,7.7s.43,5.2,1.3,7.7c.87,2.5,2.13,4.72,3.8,6.66,1.66,1.94,3.68,3.5,6.03,4.68,2.36,1.18,5.03,1.77,8.01,1.77,4.16,0,7.73-.8,10.71-2.39,2.98-1.59,5.89-3.92,8.74-6.97l-1.77-1.66c-2.01,2.01-4.2,3.48-6.55,4.42-2.36.94-4.99,1.4-7.9,1.4-1.39,0-2.9-.28-4.52-.83-1.63-.55-3.16-1.52-4.58-2.91-1.42-1.39-2.6-3.26-3.54-5.62-.94-2.36-1.4-5.34-1.4-8.94h30.16ZM509.2,50.4c0-1.32.22-2.69.68-4.11.45-1.42,1.11-2.7,1.98-3.85.87-1.14,1.91-2.08,3.12-2.81,1.21-.73,2.55-1.09,4-1.09,1.94,0,3.54.26,4.78.78,1.25.52,2.25,1.28,3.02,2.29.76,1.01,1.32,2.25,1.66,3.74.35,1.49.62,3.17.83,5.04h-20.07Z"/>
        <g>
          <path class="cls-3" d="M196.82,127.46h-5.15v-3.23h-.06c-.19.43-.42.86-.69,1.3-.27.44-.6.83-.99,1.18s-.85.64-1.38.86c-.52.22-1.14.34-1.84.34-.85,0-1.55-.1-2.08-.29-.53-.19-.95-.39-1.25-.61-.15-.11-.31-.24-.5-.4-.18-.16-.35-.38-.5-.66-.15-.28-.28-.63-.38-1.07-.11-.44-.16-.98-.16-1.62v-9.09h-2.47v-.45h5.22v9.82c0,.56.04,1.07.11,1.54.08.47.22.88.43,1.23.21.35.49.63.83.83.34.2.79.3,1.34.3.47,0,.95-.14,1.46-.42.5-.28.96-.67,1.38-1.18.42-.51.76-1.13,1.04-1.84.28-.71.42-1.52.42-2.42v-7.42h-2.43v-.45h5.19v13.28h2.46v.45Z"/>
          <path class="cls-3" d="M202.87,127.02h2.46v-12.83h-2.46v-.45h5.15v3.42h.06c.13-.28.31-.63.56-1.06.25-.43.58-.84,1.01-1.25.43-.4.96-.75,1.6-1.04.64-.29,1.42-.43,2.34-.43,1.41,0,2.55.34,3.44,1.02.88.68,1.33,1.77,1.33,3.26v9.34h2.46v.45h-7.68v-.45h2.46v-10.34c0-.83-.2-1.51-.59-2.05-.4-.53-1.01-.8-1.84-.8-.68,0-1.33.15-1.95.45-.62.3-1.16.71-1.63,1.25-.47.53-.84,1.16-1.1,1.89-.27.73-.4,1.51-.4,2.37v7.23h2.47v.45h-7.68v-.45Z"/>
          <path class="cls-3" d="M226.96,127.02h2.46v-12.83h-2.46v-.45h5.15v3.23h.06c.08-.32.22-.68.42-1.09.19-.41.46-.79.8-1.17.34-.37.75-.69,1.23-.94.48-.26,1.06-.38,1.74-.38.49,0,.92.08,1.28.24s.66.36.9.61c.23.25.4.53.51.85.11.32.16.64.16.96,0,.7-.16,1.17-.48,1.41-.32.23-.69.35-1.12.35-.94,0-1.41-.3-1.41-.9,0-.19.02-.35.06-.46.04-.12.09-.23.14-.35.05-.12.1-.25.14-.4.04-.15.06-.36.06-.64,0-.68-.37-1.02-1.12-1.02-.34,0-.7.13-1.09.38-.38.26-.74.63-1.07,1.12-.33.49-.61,1.08-.83,1.78-.22.69-.34,1.49-.34,2.38v7.33h2.78v.45h-8v-.45Z"/>
          <path class="cls-3" d="M258.9,127.11c-.28.21-.61.4-.99.56-.38.16-.85.24-1.41.24-1.02,0-1.77-.22-2.22-.66-.46-.44-.77-1.05-.94-1.84h-.06c-.09.19-.2.43-.35.72-.15.29-.38.57-.69.83-.31.27-.72.49-1.23.67-.51.18-1.16.27-1.95.27-.9,0-1.61-.1-2.14-.3-.53-.2-.95-.45-1.25-.75-.3-.3-.5-.63-.59-1.01-.1-.37-.14-.72-.14-1.04,0-.75.15-1.34.45-1.79.3-.45.69-.8,1.17-1.07.48-.27,1.01-.49,1.6-.66.59-.17,1.18-.35,1.78-.54.7-.23,1.29-.44,1.74-.61.46-.17.82-.38,1.07-.62.26-.25.43-.55.53-.93.1-.37.14-.88.14-1.52,0-.51-.03-.97-.1-1.38-.06-.4-.18-.75-.35-1.04-.17-.29-.42-.51-.74-.66-.32-.15-.75-.22-1.28-.22-.7,0-1.29.12-1.74.37-.46.25-.69.65-.69,1.2,0,.36.03.72.1,1.07.06.35.1.61.1.78,0,.3-.11.55-.32.75-.21.2-.52.3-.93.3-.7,0-1.14-.13-1.31-.38-.17-.26-.26-.59-.26-.99,0-.47.11-.92.32-1.34.21-.43.53-.81.94-1.14.42-.33.94-.59,1.57-.78.63-.19,1.35-.29,2.16-.29.98,0,1.8.12,2.46.37.66.25,1.2.58,1.6.99.41.42.69.89.86,1.41.17.52.26,1.07.26,1.65v7.97c0,.62.1,1.04.29,1.25.19.21.47.32.83.32.23,0,.48-.04.74-.13.26-.08.5-.21.74-.38l.26.35ZM253.3,119.62h-.06c-.04.28-.39.55-1.06.83l-2.4.96c-.68.28-1.21.67-1.57,1.17-.36.5-.54,1.13-.54,1.87,0,.32.03.65.1.99.06.34.18.65.35.91.17.27.41.49.72.66.31.17.71.26,1.2.26.7,0,1.27-.15,1.71-.45.44-.3.77-.67.99-1.12.22-.45.37-.93.45-1.46.07-.52.11-1,.11-1.42v-3.2Z"/>
          <path class="cls-3" d="M262.58,113.74h7.74v.45h-2.62l4.13,10.05,4.29-10.05h-2.62v-.45h4.86v.45h-1.73l-6.05,14.34-5.82-14.34h-2.18v-.45Z"/>
          <path class="cls-3" d="M287.39,119.53c0,.21,0,.43-.02.66-.01.22-.02.51-.02.85,0,.7.04,1.44.13,2.21.08.77.27,1.46.56,2.08.29.62.71,1.13,1.28,1.54.56.41,1.32.61,2.26.61s1.71-.14,2.32-.42c.61-.28,1.09-.61,1.44-1.01.35-.39.61-.79.78-1.2.17-.41.3-.74.38-.99l.48.1c-.06.23-.19.57-.37,1.01-.18.44-.47.88-.86,1.31-.4.44-.93.82-1.6,1.15-.67.33-1.54.5-2.61.5s-2.05-.17-2.96-.51c-.91-.34-1.69-.83-2.35-1.47-.66-.64-1.17-1.4-1.54-2.29-.36-.88-.54-1.87-.54-2.96,0-.94.19-1.85.56-2.74.37-.89.88-1.67,1.54-2.35.65-.68,1.41-1.23,2.29-1.65.87-.42,1.81-.62,2.82-.62.6,0,1.24.11,1.92.32.68.21,1.32.56,1.9,1.04.59.48,1.08,1.12,1.47,1.9.39.79.59,1.77.59,2.94h-9.86ZM293.98,119.08c.04-.3.06-.58.06-.83v-.8c0-.73-.07-1.32-.21-1.79-.14-.47-.33-.84-.58-1.12-.25-.28-.54-.47-.9-.59-.35-.12-.73-.18-1.14-.18-.73,0-1.32.14-1.79.43-.47.29-.84.68-1.12,1.17-.28.49-.49,1.06-.62,1.7-.14.64-.23,1.31-.27,2.02h6.56Z"/>
          <path class="cls-3" d="M304.09,127.02h2.46v-22.18h-2.46v-.45h5.22v22.63h2.46v.45h-7.68v-.45Z"/>
          <path class="cls-3" d="M329.89,113.74h2.46v-4.13c.17.06.33.12.48.16.15.04.4.06.77.06.32,0,.6-.04.83-.11.23-.07.46-.2.67-.37v4.39h4.54v.45h-4.54v10.46c0,.6.06,1.08.18,1.46.12.37.27.66.46.86.19.2.4.34.62.4.22.06.44.1.66.1.75,0,1.35-.27,1.81-.82.46-.54.75-1.17.88-1.87l.45.16c-.06.28-.16.59-.29.93-.13.34-.33.67-.59.98-.27.31-.61.57-1.04.77-.43.2-.96.3-1.6.3-1.6,0-2.72-.31-3.34-.93-.63-.62-.94-1.49-.94-2.62v-10.18h-2.46v-.45Z"/>
          <path class="cls-3" d="M345.29,127.02h2.46v-22.18h-2.46v-.45h5.22v12.58h.06c.11-.28.29-.62.54-1.04.26-.42.6-.81,1.04-1.18.44-.37.97-.69,1.6-.96.63-.27,1.38-.4,2.26-.4,1.41,0,2.55.34,3.44,1.02.88.68,1.33,1.77,1.33,3.26v9.34h2.46v.45h-7.68v-.45h2.46v-10.34c0-.83-.2-1.51-.59-2.05-.4-.53-1.01-.8-1.84-.8-.68,0-1.33.15-1.95.45-.62.3-1.16.71-1.63,1.25-.47.53-.84,1.16-1.1,1.89-.27.73-.4,1.51-.4,2.37v7.23h2.47v.45h-7.68v-.45Z"/>
          <path class="cls-3" d="M373.19,119.53c0,.21,0,.43-.02.66-.01.22-.02.51-.02.85,0,.7.04,1.44.13,2.21.08.77.27,1.46.56,2.08.29.62.71,1.13,1.28,1.54.56.41,1.32.61,2.26.61s1.71-.14,2.32-.42c.61-.28,1.09-.61,1.44-1.01.35-.39.61-.79.78-1.2.17-.41.3-.74.38-.99l.48.1c-.06.23-.19.57-.37,1.01-.18.44-.47.88-.86,1.31-.4.44-.93.82-1.6,1.15-.67.33-1.54.5-2.61.5s-2.05-.17-2.96-.51c-.91-.34-1.69-.83-2.35-1.47-.66-.64-1.17-1.4-1.54-2.29-.36-.88-.54-1.87-.54-2.96,0-.94.19-1.85.56-2.74.37-.89.88-1.67,1.54-2.35.65-.68,1.41-1.23,2.29-1.65.87-.42,1.81-.62,2.82-.62.6,0,1.24.11,1.92.32.68.21,1.32.56,1.9,1.04.59.48,1.08,1.12,1.47,1.9s.59,1.77.59,2.94h-9.86ZM379.79,119.08c.04-.3.06-.58.06-.83v-.8c0-.73-.07-1.32-.21-1.79-.14-.47-.33-.84-.58-1.12s-.54-.47-.9-.59c-.35-.12-.73-.18-1.14-.18-.73,0-1.32.14-1.79.43-.47.29-.84.68-1.12,1.17-.28.49-.49,1.06-.62,1.7-.14.64-.23,1.31-.27,2.02h6.56Z"/>
          <path class="cls-3" d="M401.84,127.02h2.46v-12.83h-2.46v-.45h5.15v3.36h.06c.45-1.28,1.09-2.22,1.94-2.82.84-.6,1.86-.9,3.06-.9,1.07,0,2.01.24,2.83.7.82.47,1.36,1.25,1.62,2.34h.06c.15-.38.35-.76.61-1.12.26-.36.58-.69.96-.98.38-.29.84-.52,1.36-.69.52-.17,1.11-.26,1.78-.26,3.11,0,4.67,1.59,4.67,4.77v8.86h2.46v.45h-7.68v-.45h2.47v-10.88c0-.72-.2-1.29-.59-1.7-.39-.4-.93-.61-1.62-.61-.53,0-1.07.1-1.6.3-.53.2-1.01.51-1.44.91-.43.41-.77.93-1.04,1.57-.27.64-.4,1.39-.4,2.24v8.16h2.46v.45h-7.68v-.45h2.46v-10.43c0-.94-.19-1.63-.58-2.08-.38-.45-.9-.67-1.54-.67-.45,0-.94.11-1.47.34-.53.22-1.03.58-1.49,1.06-.46.48-.84,1.1-1.15,1.87-.31.77-.46,1.71-.46,2.82v7.1h2.46v.45h-7.68v-.45Z"/>
          <path class="cls-3" d="M433.05,113.74h7.84v.45h-2.69l4.13,10.05,4.32-10.05h-2.66v-.45h4.9v.45h-1.73l-5.28,12.35c-.41.92-.79,1.84-1.15,2.77-.36.93-.72,1.86-1.09,2.8-.3.77-.6,1.44-.9,2.02s-.61,1.05-.94,1.41c-.33.36-.69.63-1.07.82-.38.18-.83.27-1.34.27-.62,0-1.12-.1-1.49-.29-.37-.19-.67-.42-.88-.67-.21-.26-.35-.52-.42-.8-.06-.28-.1-.51-.1-.7,0-.53.15-.93.45-1.2.3-.27.66-.4,1.09-.4.15,0,.31.02.48.05s.33.09.48.18c.15.09.28.2.38.35s.16.33.16.54c0,.3-.09.58-.27.85-.18.27-.27.56-.27.88,0,.28.07.46.22.54.15.08.35.13.61.13.34,0,.66-.08.94-.24.29-.16.57-.42.85-.78.28-.36.55-.84.83-1.42.28-.59.59-1.31.93-2.16l1.41-3.58-5.54-13.7h-2.21v-.45Z"/>
          <path class="cls-3" d="M454.87,122.98h.35c.15.51.34,1.03.58,1.55.23.52.55,1,.94,1.44.39.44.88.79,1.46,1.07.58.28,1.27.42,2.08.42.68,0,1.29-.21,1.82-.62.53-.42.8-1.09.8-2.03,0-.81-.21-1.38-.62-1.71-.42-.33-.9-.59-1.46-.78l-2.5-.86c-.32-.11-.67-.24-1.04-.4s-.72-.38-1.04-.67-.58-.66-.78-1.1c-.2-.45-.3-1.02-.3-1.73,0-.6.12-1.15.35-1.66s.55-.96.96-1.34.89-.68,1.46-.9c.57-.21,1.18-.32,1.84-.32.47,0,.85.04,1.14.11.29.08.54.15.75.22.21.07.41.15.58.22.17.08.37.11.61.11s.41-.08.51-.26h.35v3.65h-.35c-.15-.47-.32-.92-.51-1.36-.19-.44-.42-.83-.69-1.17-.27-.34-.6-.61-.99-.8-.4-.19-.86-.29-1.39-.29-1.02,0-1.82.23-2.38.69-.57.46-.85,1.07-.85,1.84,0,.68.24,1.2.72,1.55.48.35,1.19.68,2.13.98l2.34.77c1,.34,1.82.81,2.46,1.41.64.6.96,1.39.96,2.37,0,.58-.11,1.14-.34,1.7-.22.56-.55,1.04-.99,1.46-.44.42-.97.75-1.6,1.01-.63.26-1.35.38-2.16.38-.47,0-.9-.05-1.3-.14-.39-.1-.76-.2-1.09-.3-.33-.11-.63-.21-.91-.3-.28-.1-.53-.14-.77-.14s-.41.05-.51.14c-.11.1-.19.2-.26.3h-.35v-4.48Z"/>
          <path class="cls-3" d="M471.74,113.74h2.46v-4.13c.17.06.33.12.48.16.15.04.4.06.77.06.32,0,.6-.04.83-.11.23-.07.46-.2.67-.37v4.39h4.54v.45h-4.54v10.46c0,.6.06,1.08.18,1.46.12.37.27.66.46.86.19.2.4.34.62.4.22.06.44.1.66.1.75,0,1.35-.27,1.81-.82.46-.54.75-1.17.88-1.87l.45.16c-.06.28-.16.59-.29.93-.13.34-.33.67-.59.98-.27.31-.61.57-1.04.77-.43.2-.96.3-1.6.3-1.6,0-2.72-.31-3.34-.93-.63-.62-.94-1.49-.94-2.62v-10.18h-2.46v-.45Z"/>
          <path class="cls-3" d="M491,119.53c0,.21,0,.43-.02.66-.01.22-.02.51-.02.85,0,.7.04,1.44.13,2.21.08.77.27,1.46.56,2.08.29.62.71,1.13,1.28,1.54.56.41,1.32.61,2.26.61s1.71-.14,2.32-.42c.61-.28,1.09-.61,1.44-1.01.35-.39.61-.79.78-1.2.17-.41.3-.74.38-.99l.48.1c-.06.23-.19.57-.37,1.01-.18.44-.47.88-.86,1.31-.4.44-.93.82-1.6,1.15-.67.33-1.54.5-2.61.5s-2.05-.17-2.96-.51c-.91-.34-1.69-.83-2.35-1.47-.66-.64-1.17-1.4-1.54-2.29-.36-.88-.54-1.87-.54-2.96,0-.94.19-1.85.56-2.74.37-.89.88-1.67,1.54-2.35.65-.68,1.41-1.23,2.29-1.65.87-.42,1.81-.62,2.82-.62.6,0,1.24.11,1.92.32.68.21,1.32.56,1.9,1.04.59.48,1.08,1.12,1.47,1.9.39.79.59,1.77.59,2.94h-9.86ZM497.6,119.08c.04-.3.06-.58.06-.83v-.8c0-.73-.07-1.32-.21-1.79-.14-.47-.33-.84-.58-1.12-.25-.28-.54-.47-.9-.59-.35-.12-.73-.18-1.14-.18-.73,0-1.32.14-1.79.43-.47.29-.84.68-1.12,1.17-.28.49-.49,1.06-.62,1.7-.14.64-.23,1.31-.27,2.02h6.56Z"/>
          <path class="cls-3" d="M507.68,127.02h2.46v-12.83h-2.46v-.45h5.15v3.23h.06c.08-.32.22-.68.42-1.09.19-.41.46-.79.8-1.17.34-.37.75-.69,1.23-.94.48-.26,1.06-.38,1.74-.38.49,0,.92.08,1.28.24s.66.36.9.61c.23.25.4.53.51.85.11.32.16.64.16.96,0,.7-.16,1.17-.48,1.41-.32.23-.69.35-1.12.35-.94,0-1.41-.3-1.41-.9,0-.19.02-.35.06-.46.04-.12.09-.23.14-.35.05-.12.1-.25.14-.4.04-.15.06-.36.06-.64,0-.68-.37-1.02-1.12-1.02-.34,0-.7.13-1.09.38-.38.26-.74.63-1.07,1.12-.33.49-.61,1.08-.83,1.78-.22.69-.34,1.49-.34,2.38v7.33h2.78v.45h-8v-.45Z"/>
          <path class="cls-3" d="M524.16,113.74h7.84v.45h-2.69l4.13,10.05,4.32-10.05h-2.66v-.45h4.9v.45h-1.73l-5.28,12.35c-.41.92-.79,1.84-1.15,2.77-.36.93-.72,1.86-1.09,2.8-.3.77-.6,1.44-.9,2.02s-.61,1.05-.94,1.41c-.33.36-.69.63-1.07.82-.38.18-.83.27-1.34.27-.62,0-1.12-.1-1.49-.29-.37-.19-.67-.42-.88-.67-.21-.26-.35-.52-.42-.8-.06-.28-.1-.51-.1-.7,0-.53.15-.93.45-1.2.3-.27.66-.4,1.09-.4.15,0,.31.02.48.05s.33.09.48.18c.15.09.28.2.38.35s.16.33.16.54c0,.3-.09.58-.27.85-.18.27-.27.56-.27.88,0,.28.07.46.22.54.15.08.35.13.61.13.34,0,.66-.08.94-.24.29-.16.57-.42.85-.78.28-.36.55-.84.83-1.42.28-.59.59-1.31.93-2.16l1.41-3.58-5.54-13.7h-2.21v-.45Z"/>
        </g>
      </g>
    </g>
  </g>
</svg>