<svg width="420" height="120" viewBox="0 0 420 120" fill="none" xmlns="http://www.w3.org/2000/svg">
  <g>
    <path d="M46 12C33 20 29 33 33 45C37 56 47 63 58 67C51 73 48 80 50 88C53 98 64 104 75 102C61 95 60 83 69 74C78 65 81 52 75 40C70 30 59 23 46 12Z" stroke="#EF6A40" stroke-width="4" stroke-linecap="round" stroke-linejoin="round"/>
    <path d="M57 27C64 36 64 49 57 57" stroke="#EF6A40" stroke-width="3.5" stroke-linecap="round"/>
    <path d="M49 60C56 66 66 67 76 63" stroke="#8BA4BF" stroke-width="3.5" stroke-linecap="round"/>
  </g>
  <text x="98" y="52" fill="#ED5B2D" font-family="Outfit, Arial, sans-serif" font-size="48" font-weight="600">my stree</text>
  <text x="100" y="78" fill="#8BA4BF" font-family="Outfit, Arial, sans-serif" font-size="18" letter-spacing="1.5">UNRAVEL THE MYSTERY</text>
</svg>
